<?xml version="1.0" encoding="UTF-8" standalone="no"?>
<!DOCTYPE svg PUBLIC "-//W3C//DTD SVG 20010904//EN"
              "http://www.w3.org/TR/2001/REC-SVG-20010904/DTD/svg10.dtd">

<svg xmlns="http://www.w3.org/2000/svg"
     width="15.5556in" height="1.54444in"
     viewBox="0 0 1400 139">
  <path id="パス #4"
        fill="none" stroke="black" stroke-width="1"
        d="M 120.70,16.00
           C 120.70,16.00 71.08,16.00 71.08,16.00
             71.08,16.00 71.08,139.00 71.08,139.00
             71.08,139.00 52.61,139.00 52.61,139.00
             52.61,139.00 52.61,16.00 52.61,16.00
             52.61,16.00 3.00,16.00 3.00,16.00
             3.00,16.00 3.00,0.00 3.00,0.00
             3.00,0.00 120.70,0.00 120.70,0.00
             120.70,0.00 120.70,16.00 120.70,16.00 Z
           M 124.31,139.00
           C 124.31,139.00 105.86,139.00 105.86,139.00
             105.86,139.00 105.86,19.28 105.86,19.28
             105.86,19.28 67.25,101.00 67.25,101.00
             67.25,101.00 56.23,101.00 56.23,101.00
             56.23,101.00 17.91,19.28 17.91,19.28
             17.91,19.28 17.91,139.00 17.91,139.00
             17.91,139.00 0.66,139.00 0.66,139.00
             0.66,139.00 0.66,0.00 0.66,0.00
             0.66,0.00 25.83,0.00 25.83,0.00
             25.83,0.00 62.86,77.59 62.86,77.59
             62.86,77.59 98.67,0.00 98.67,0.00
             98.67,0.00 124.31,0.00 124.31,0.00
             124.31,0.00 124.31,139.00 124.31,139.00 Z
           M 115.59,139.00
           C 115.59,139.00 92.75,139.00 92.75,139.00
             92.75,139.00 26.91,14.66 26.91,14.66
             26.91,14.66 26.91,139.00 26.91,139.00
             26.91,139.00 9.66,139.00 9.66,139.00
             9.66,139.00 9.66,0.00 9.66,0.00
             9.66,0.00 38.28,0.00 38.28,0.00
             38.28,0.00 98.34,113.52 98.34,113.52
             98.34,113.52 98.34,0.00 98.34,0.00
             98.34,0.00 115.59,0.00 115.59,0.00
             115.59,0.00 115.59,139.00 115.59,139.00 Z
           M 117.12,139.00
           C 117.12,139.00 8.75,139.00 8.75,139.00
             8.75,139.00 8.75,122.00 8.75,122.00
             8.75,122.00 93.91,16.00 93.91,16.00
             93.91,16.00 11.92,16.00 11.92,16.00
             11.92,16.00 11.92,0.00 11.92,0.00
             11.92,0.00 115.06,0.00 115.06,0.00
             115.06,0.00 115.06,16.00 115.06,16.00
             115.06,16.00 29.08,123.00 29.08,123.00
             29.08,123.00 117.12,123.00 117.12,123.00
             117.12,123.00 117.12,139.00 117.12,139.00 Z
           M 199.70,115.00
           C 199.70,115.00 135.02,115.00 135.02,115.00
             135.02,115.00 135.02,105.00 135.02,105.00
             135.02,105.00 185.83,42.00 185.83,42.00
             185.83,42.00 136.91,42.00 136.91,42.00
             136.91,42.00 136.91,32.00 136.91,32.00
             136.91,32.00 198.47,32.00 198.47,32.00
             198.47,32.00 198.47,42.00 198.47,42.00
             198.47,42.00 147.16,105.00 147.16,105.00
             147.16,105.00 199.70,105.00 199.70,105.00
             199.70,105.00 199.70,115.00 199.70,115.00 Z
           M 269.73,115.00
           C 269.73,115.00 215.14,115.00 215.14,115.00
             215.14,115.00 215.14,32.00 215.14,32.00
             215.14,32.00 269.73,32.00 269.73,32.00
             269.73,32.00 269.73,42.00 269.73,42.00
             269.73,42.00 226.16,42.00 226.16,42.00
             226.16,42.00 226.16,65.00 226.16,65.00
             226.16,65.00 269.73,65.00 269.73,65.00
             269.73,65.00 269.73,75.00 269.73,75.00
             269.73,75.00 226.16,75.00 226.16,75.00
             226.16,75.00 226.16,105.00 226.16,105.00
             226.16,105.00 269.73,105.00 269.73,105.00
             269.73,105.00 269.73,115.00 269.73,115.00 Z
           M 348.38,115.00
           C 348.38,115.00 334.73,115.00 334.73,115.00
             334.73,115.00 295.44,40.75 295.44,40.75
             295.44,40.75 295.44,115.00 295.44,115.00
             295.44,115.00 285.14,115.00 285.14,115.00
             285.14,115.00 285.14,32.00 285.14,32.00
             285.14,32.00 302.22,32.00 302.22,32.00
             302.22,32.00 338.06,99.78 338.06,99.78
             338.06,99.78 338.06,32.00 338.06,32.00
             338.06,32.00 348.38,32.00 348.38,32.00
             348.38,32.00 348.38,115.00 348.38,115.00 Z
           M 428.70,115.00
           C 428.70,115.00 364.02,115.00 364.02,115.00
             364.02,115.00 364.02,105.00 364.02,105.00
             364.02,105.00 414.83,42.00 414.83,42.00
             414.83,42.00 365.91,42.00 365.91,42.00
             365.91,42.00 365.91,32.00 365.91,32.00
             365.91,32.00 427.47,32.00 427.47,32.00
             427.47,32.00 427.47,42.00 427.47,42.00
             427.47,42.00 376.16,105.00 376.16,105.00
             376.16,105.00 428.70,105.00 428.70,105.00
             428.70,105.00 428.70,115.00 428.70,115.00 Z
           M 498.73,115.00
           C 498.73,115.00 444.14,115.00 444.14,115.00
             444.14,115.00 444.14,32.00 444.14,32.00
             444.14,32.00 498.73,32.00 498.73,32.00
             498.73,32.00 498.73,42.00 498.73,42.00
             498.73,42.00 455.16,42.00 455.16,42.00
             455.16,42.00 455.16,65.00 455.16,65.00
             455.16,65.00 498.73,65.00 498.73,65.00
             498.73,65.00 498.73,75.00 498.73,75.00
             498.73,75.00 455.16,75.00 455.16,75.00
             455.16,75.00 455.16,105.00 455.16,105.00
             455.16,105.00 498.73,105.00 498.73,105.00
             498.73,105.00 498.73,115.00 498.73,115.00 Z
           M 577.38,115.00
           C 577.38,115.00 563.73,115.00 563.73,115.00
             563.73,115.00 524.44,40.75 524.44,40.75
             524.44,40.75 524.44,115.00 524.44,115.00
             524.44,115.00 514.14,115.00 514.14,115.00
             514.14,115.00 514.14,32.00 514.14,32.00
             514.14,32.00 531.22,32.00 531.22,32.00
             531.22,32.00 567.06,99.78 567.06,99.78
             567.06,99.78 567.06,32.00 567.06,32.00
             567.06,32.00 577.38,32.00 577.38,32.00
             577.38,32.00 577.38,115.00 577.38,115.00 Z
           M 708.94,115.00
           C 708.94,115.00 697.92,115.00 697.92,115.00
             697.92,115.00 697.92,43.45 697.92,43.45
             697.92,43.45 674.88,92.00 674.88,92.00
             674.88,92.00 668.31,92.00 668.31,92.00
             668.31,92.00 645.44,43.45 645.44,43.45
             645.44,43.45 645.44,115.00 645.44,115.00
             645.44,115.00 635.14,115.00 635.14,115.00
             635.14,115.00 635.14,32.00 635.14,32.00
             635.14,32.00 650.16,32.00 650.16,32.00
             650.16,32.00 672.27,78.09 672.27,78.09
             672.27,78.09 693.64,32.00 693.64,32.00
             693.64,32.00 708.94,32.00 708.94,32.00
             708.94,32.00 708.94,115.00 708.94,115.00 Z
           M 794.48,115.00
           C 794.48,115.00 782.73,115.00 782.73,115.00
             782.73,115.00 774.61,92.00 774.61,92.00
             774.61,92.00 738.77,92.00 738.77,92.00
             738.77,92.00 730.64,115.00 730.64,115.00
             730.64,115.00 719.45,115.00 719.45,115.00
             719.45,115.00 749.62,32.00 749.62,32.00
             749.62,32.00 764.31,32.00 764.31,32.00
             764.31,32.00 794.48,115.00 794.48,115.00 Z
           M 771.22,82.00
           C 771.22,82.00 756.69,41.64 756.69,41.64
             756.69,41.64 742.11,82.00 742.11,82.00
             742.11,82.00 771.22,82.00 771.22,82.00 Z
           M 857.25,42.00
           C 857.25,42.00 827.64,42.00 827.64,42.00
             827.64,42.00 827.64,115.00 827.64,115.00
             827.64,115.00 816.61,115.00 816.61,115.00
             816.61,115.00 816.61,42.00 816.61,42.00
             816.61,42.00 787.00,42.00 787.00,42.00
             787.00,42.00 787.00,32.00 787.00,32.00
             787.00,32.00 857.25,32.00 857.25,32.00
             857.25,32.00 857.25,42.00 857.25,42.00 Z
           M 924.92,41.33
           C 928.30,45.07 930.88,49.65 932.69,55.08
             934.49,60.50 935.39,66.65 935.39,73.53
             935.39,80.41 934.47,86.57 932.62,92.02
             930.79,97.45 928.22,101.98 924.92,105.61
             921.50,109.39 917.47,112.23 912.81,114.14
             908.16,116.05 902.84,117.00 896.88,117.00
             891.04,117.00 885.74,116.03 880.97,114.09
             876.21,112.15 872.16,109.32 868.81,105.61
             865.48,101.91 862.91,97.37 861.11,91.98
             859.30,86.60 858.41,80.45 858.41,73.53
             858.41,66.72 859.30,60.62 861.08,55.22
             862.86,49.81 865.46,45.18 868.88,41.33
             872.13,37.66 876.19,34.86 881.03,32.92
             885.88,30.98 891.16,30.00 896.88,30.00
             902.81,30.00 908.14,30.98 912.88,32.95
             917.60,34.91 921.62,37.70 924.92,41.33 Z
           M 923.92,73.53
           C 923.92,62.81 921.51,54.55 916.69,48.73
             911.86,42.91 905.27,40.00 896.92,40.00
             888.50,40.00 881.89,42.91 877.08,48.73
             872.27,54.55 869.88,62.81 869.88,73.53
             869.88,84.36 872.32,92.64 877.22,98.39
             882.11,104.13 888.68,107.00 896.92,107.00
             905.16,107.00 911.72,104.13 916.59,98.39
             921.48,92.64 923.92,84.36 923.92,73.53 Z
           M 1024.94,115.00
           C 1024.94,115.00 1013.92,115.00 1013.92,115.00
             1013.92,115.00 1013.92,43.45 1013.92,43.45
             1013.92,43.45 990.88,92.00 990.88,92.00
             990.88,92.00 984.31,92.00 984.31,92.00
             984.31,92.00 961.44,43.45 961.44,43.45
             961.44,43.45 961.44,115.00 961.44,115.00
             961.44,115.00 951.14,115.00 951.14,115.00
             951.14,115.00 951.14,32.00 951.14,32.00
             951.14,32.00 966.16,32.00 966.16,32.00
             966.16,32.00 988.27,78.09 988.27,78.09
             988.27,78.09 1009.64,32.00 1009.64,32.00
             1009.64,32.00 1024.94,32.00 1024.94,32.00
             1024.94,32.00 1024.94,115.00 1024.94,115.00 Z
           M 1110.48,115.00
           C 1110.48,115.00 1098.73,115.00 1098.73,115.00
             1098.73,115.00 1090.61,92.00 1090.61,92.00
             1090.61,92.00 1054.77,92.00 1054.77,92.00
             1054.77,92.00 1046.64,115.00 1046.64,115.00
             1046.64,115.00 1035.45,115.00 1035.45,115.00
             1035.45,115.00 1065.62,32.00 1065.62,32.00
             1065.62,32.00 1080.31,32.00 1080.31,32.00
             1080.31,32.00 1110.48,115.00 1110.48,115.00 Z
           M 1087.22,82.00
           C 1087.22,82.00 1072.69,41.64 1072.69,41.64
             1072.69,41.64 1058.11,82.00 1058.11,82.00
             1058.11,82.00 1087.22,82.00 1087.22,82.00 Z
           M 1184.38,115.00
           C 1184.38,115.00 1170.73,115.00 1170.73,115.00
             1170.73,115.00 1131.44,40.75 1131.44,40.75
             1131.44,40.75 1131.44,115.00 1131.44,115.00
             1131.44,115.00 1121.14,115.00 1121.14,115.00
             1121.14,115.00 1121.14,32.00 1121.14,32.00
             1121.14,32.00 1138.22,32.00 1138.22,32.00
             1138.22,32.00 1174.06,99.78 1174.06,99.78
             1174.06,99.78 1174.06,32.00 1174.06,32.00
             1174.06,32.00 1184.38,32.00 1184.38,32.00
             1184.38,32.00 1184.38,115.00 1184.38,115.00 Z
           M 1267.38,115.00
           C 1267.38,115.00 1253.73,115.00 1253.73,115.00
             1253.73,115.00 1214.44,40.75 1214.44,40.75
             1214.44,40.75 1214.44,115.00 1214.44,115.00
             1214.44,115.00 1204.14,115.00 1204.14,115.00
             1204.14,115.00 1204.14,32.00 1204.14,32.00
             1204.14,32.00 1221.22,32.00 1221.22,32.00
             1221.22,32.00 1257.06,99.78 1257.06,99.78
             1257.06,99.78 1257.06,32.00 1257.06,32.00
             1257.06,32.00 1267.38,32.00 1267.38,32.00
             1267.38,32.00 1267.38,115.00 1267.38,115.00 Z
           M 1352.48,115.00
           C 1352.48,115.00 1340.73,115.00 1340.73,115.00
             1340.73,115.00 1332.61,92.00 1332.61,92.00
             1332.61,92.00 1296.77,92.00 1296.77,92.00
             1296.77,92.00 1288.64,115.00 1288.64,115.00
             1288.64,115.00 1277.45,115.00 1277.45,115.00
             1277.45,115.00 1307.62,32.00 1307.62,32.00
             1307.62,32.00 1322.31,32.00 1322.31,32.00
             1322.31,32.00 1352.48,115.00 1352.48,115.00 Z
           M 1329.22,82.00
           C 1329.22,82.00 1314.69,41.64 1314.69,41.64
             1314.69,41.64 1300.11,82.00 1300.11,82.00
             1300.11,82.00 1329.22,82.00 1329.22,82.00 Z
           M 1392.36,115.00
           C 1392.36,115.00 1359.62,115.00 1359.62,115.00
             1359.62,115.00 1359.62,107.00 1359.62,107.00
             1359.62,107.00 1370.48,107.00 1370.48,107.00
             1370.48,107.00 1370.48,40.00 1370.48,40.00
             1370.48,40.00 1359.62,40.00 1359.62,40.00
             1359.62,40.00 1359.62,32.00 1359.62,32.00
             1359.62,32.00 1392.36,32.00 1392.36,32.00
             1392.36,32.00 1392.36,40.00 1392.36,40.00
             1392.36,40.00 1381.50,40.00 1381.50,40.00
             1381.50,40.00 1381.50,107.00 1381.50,107.00
             1381.50,107.00 1392.36,107.00 1392.36,107.00
             1392.36,107.00 1392.36,115.00 1392.36,115.00 Z" />
</svg>
